<?xml version="1.0" encoding="UTF-8" standalone="no"?>
<svg
   xmlns:dc="http://purl.org/dc/elements/1.1/"
   xmlns:cc="http://creativecommons.org/ns#"
   xmlns:rdf="http://www.w3.org/1999/02/22-rdf-syntax-ns#"
   xmlns:svg="http://www.w3.org/2000/svg"
   xmlns="http://www.w3.org/2000/svg"
   xmlns:sodipodi="http://sodipodi.sourceforge.net/DTD/sodipodi-0.dtd"
   xmlns:inkscape="http://www.inkscape.org/namespaces/inkscape"
   inkscape:version="1.0 (4035a4fb49, 2020-05-01)"
   sodipodi:docname="BUILDINGWEBSITECHARACTERVECTOR.svg"
   id="svg8"
   version="1.1"
   viewBox="0 0 380.99999 285.75001"
   height="1080"
   width="1440">
  <defs
     id="defs2" />
  <sodipodi:namedview
     inkscape:window-maximized="1"
     inkscape:window-y="-8"
     inkscape:window-x="-8"
     inkscape:window-height="715"
     inkscape:window-width="1366"
     inkscape:snap-others="false"
     inkscape:snap-nodes="false"
     inkscape:guide-bbox="true"
     showguides="true"
     inkscape:snap-text-baseline="true"
     inkscape:snap-center="true"
     inkscape:snap-object-midpoints="true"
     inkscape:snap-midpoints="true"
     inkscape:snap-smooth-nodes="true"
     inkscape:snap-intersection-paths="true"
     inkscape:object-paths="true"
     units="px"
     showgrid="false"
     inkscape:document-rotation="0"
     inkscape:current-layer="layer1"
     inkscape:document-units="mm"
     inkscape:cy="610.09568"
     inkscape:cx="540.176"
     inkscape:zoom="0.35"
     inkscape:pageshadow="2"
     inkscape:pageopacity="0.0"
     borderopacity="1.0"
     bordercolor="#666666"
     pagecolor="#ffffff"
     id="base">
    <sodipodi:guide
       id="guide890"
       orientation="0,-1"
       position="262.32503,66.722624" />
  </sodipodi:namedview>
  <metadata
     id="metadata5">
    <rdf:RDF>
      <cc:Work
         rdf:about="">
        <dc:format>image/svg+xml</dc:format>
        <dc:type
           rdf:resource="http://purl.org/dc/dcmitype/StillImage" />
        <dc:title></dc:title>
      </cc:Work>
    </rdf:RDF>
  </metadata>
  <g
     inkscape:label="panel 1"
     id="layer14"
     inkscape:groupmode="layer">
    <path
       id="path1025"
       style="fill:#db3636;fill-opacity:1;stroke:none;stroke-width:20.5219;stroke-linecap:round;stroke-linejoin:round;stroke-miterlimit:4;stroke-dasharray:none;stroke-opacity:1;paint-order:markers fill stroke"
       d="m 286.86324,206.65525 88.71964,-1.83009 0.27171,13.17257 -88.71963,1.83008 z" />
    <path
       d="m 297.50227,201.63843 75.34979,-3.99172 0.59266,11.18749 -75.34978,3.99171 z"
       style="fill:#ff3e3e;fill-opacity:1;stroke:none;stroke-width:17.45;stroke-linecap:round;stroke-linejoin:round;stroke-miterlimit:4;stroke-dasharray:none;stroke-opacity:1;paint-order:markers fill stroke"
       id="rect855-4-5" />
    <path
       id="path1027"
       style="fill:#ff6a6a;fill-opacity:1;stroke:none;stroke-width:17.45;stroke-linecap:round;stroke-linejoin:round;stroke-miterlimit:4;stroke-dasharray:none;stroke-opacity:1;paint-order:markers fill stroke"
       d="m 300.2433,196.42353 74.6939,10.6932 -1.58767,11.09011 -74.69389,-10.6932 z" />
  </g>
  <g
     id="layer1"
     inkscape:groupmode="layer"
     inkscape:label="Layer 1">
    <rect
       y="62.937447"
       x="111.53332"
       height="30.720343"
       width="154.0379"
       id="rect845"
       style="fill:#0473ed;fill-opacity:1;stroke:none;stroke-width:14.9274;stroke-linecap:round;stroke-linejoin:round;stroke-miterlimit:4;stroke-dasharray:none;stroke-opacity:1;paint-order:markers fill stroke" />
    <rect
       style="fill:#d1d1d1;fill-opacity:1;stroke:none;stroke-width:11.7259;stroke-linecap:round;stroke-linejoin:round;stroke-miterlimit:4;stroke-dasharray:none;stroke-opacity:1;paint-order:markers fill stroke"
       id="rect861"
       width="43.192497"
       height="8.8374767"
       x="122.00229"
       y="139.01508" />
    <path
       id="path843"
       d="m 111.05293,49.18029 c -6.79862,0 -12.500661,5.367288 -12.500661,11.768669 v 86.461061 c 0,6.40138 5.702051,11.77027 12.500661,11.77027 h 154.99868 c 6.79861,0 12.50066,-5.36888 12.50066,-11.77027 V 60.948959 c 0,-6.401389 -5.70204,-11.768669 -12.50066,-11.768669 z m 2.11188,13.757158 H 263.93973 V 145.42312 H 113.16481 Z"
       style="color:#000000;font-style:normal;font-variant:normal;font-weight:normal;font-stretch:normal;font-size:medium;line-height:normal;font-family:sans-serif;font-variant-ligatures:normal;font-variant-position:normal;font-variant-caps:normal;font-variant-numeric:normal;font-variant-alternates:normal;font-variant-east-asian:normal;font-feature-settings:normal;font-variation-settings:normal;text-indent:0;text-align:start;text-decoration:none;text-decoration-line:none;text-decoration-style:solid;text-decoration-color:#000000;letter-spacing:normal;word-spacing:normal;text-transform:none;writing-mode:lr-tb;direction:ltr;text-orientation:mixed;dominant-baseline:auto;baseline-shift:baseline;text-anchor:start;white-space:normal;shape-padding:0;shape-margin:0;inline-size:0;clip-rule:nonzero;display:inline;overflow:visible;visibility:visible;opacity:1;isolation:auto;mix-blend-mode:normal;color-interpolation:sRGB;color-interpolation-filters:linearRGB;solid-color:#000000;solid-opacity:1;vector-effect:none;fill:#636363;fill-opacity:1;fill-rule:nonzero;stroke:none;stroke-width:14.1779;stroke-linecap:round;stroke-linejoin:round;stroke-miterlimit:4;stroke-dasharray:none;stroke-dashoffset:0;stroke-opacity:1;paint-order:markers fill stroke;color-rendering:auto;image-rendering:auto;shape-rendering:auto;text-rendering:auto;enable-background:accumulate;stop-color:#000000;stop-opacity:1" />
    <circle
       r="8.8374767"
       cy="78.297615"
       cx="130.83977"
       id="path849"
       style="fill:#75b7ff;fill-opacity:1;stroke:none;stroke-width:13.9629;stroke-linecap:round;stroke-linejoin:round;stroke-miterlimit:4;stroke-dasharray:none;stroke-opacity:1;paint-order:markers fill stroke" />
    <rect
       style="fill:#d1d1d1;fill-opacity:1;stroke:none;stroke-width:13.7652;stroke-linecap:round;stroke-linejoin:round;stroke-miterlimit:4;stroke-dasharray:none;stroke-opacity:1;paint-order:markers fill stroke"
       id="rect855"
       width="59.522102"
       height="8.8374767"
       x="122.00229"
       y="103.66515" />
    <rect
       style="fill:#d1d1d1;fill-opacity:1;stroke:none;stroke-width:16.8558;stroke-linecap:round;stroke-linejoin:round;stroke-miterlimit:4;stroke-dasharray:none;stroke-opacity:1;paint-order:markers fill stroke"
       id="rect857"
       width="89.251266"
       height="8.8374767"
       x="122.00229"
       y="121.34011" />
    <path
       sodipodi:nodetypes="ccccc"
       d="m 158.55228,159.18028 h 60 c 0,10.41575 9.44772,20.83151 9.44772,20.83151 h -80 c 0,0 10.55228,-10.41576 10.55228,-20.83151 z"
       style="fill:#d1d1d1;fill-opacity:1;stroke:none;stroke-width:16.9844;stroke-linecap:round;stroke-linejoin:round;stroke-miterlimit:4;stroke-dasharray:none;stroke-opacity:1;paint-order:markers fill stroke"
       id="rect863" />
    <rect
       style="fill:#bbbbbb;fill-opacity:1;stroke:none;stroke-width:21.373;stroke-linecap:round;stroke-linejoin:round;stroke-miterlimit:4;stroke-dasharray:none;stroke-opacity:1;paint-order:markers fill stroke"
       id="rect1044"
       width="105.28745"
       height="12.044711"
       x="8.2937298"
       y="196.56793" />
    <rect
       transform="rotate(-1.8798959)"
       y="192.79932"
       x="12.545644"
       height="8.8374767"
       width="89.251274"
       id="rect857-7"
       style="fill:#d1d1d1;fill-opacity:1;stroke:none;stroke-width:16.8558;stroke-linecap:round;stroke-linejoin:round;stroke-miterlimit:4;stroke-dasharray:none;stroke-opacity:1;paint-order:markers fill stroke" />
  </g>
  <g
     inkscape:label="Layer 2"
     id="layer2"
     inkscape:groupmode="layer" />
  <g
     inkscape:label="peesq"
     id="layer3"
     inkscape:groupmode="layer">
    <path
       sodipodi:nodetypes="ccccc"
       id="path892"
       d="m 237.88863,220.53858 h 21.24792 l 2.58445,-9.64534 h -10.20162 c -5.87993,7.61718 -13.43029,0.56406 -13.63075,9.64534 z"
       style="fill:#000000;fill-opacity:1;stroke:none;stroke-width:0.264583px;stroke-linecap:butt;stroke-linejoin:miter;stroke-opacity:1" />
  </g>
  <g
     inkscape:label="pedir"
     id="layer4"
     inkscape:groupmode="layer">
    <path
       style="fill:#000000;fill-opacity:1;stroke:none;stroke-width:0.264583px;stroke-linecap:butt;stroke-linejoin:miter;stroke-opacity:1"
       d="m 269.46256,220.53859 h 16.43707 l 2.58445,-9.64534 h -10.20161 c -1.46999,5.07812 -8.61945,0.56406 -8.81991,9.64534 z"
       id="path892-8"
       sodipodi:nodetypes="ccccc" />
  </g>
  <g
     inkscape:label="perna"
     id="layer5"
     inkscape:groupmode="layer">
    <path
       sodipodi:nodetypes="ccccscccc"
       id="path913"
       d="m 261.721,210.89324 13.90195,-44.96239 2.65952,44.9624 h 10.20161 c 2.55336,-18.95387 0.47801,-25.02989 1.35436,-31.69878 3.07303,-23.38531 5.0613,-31.78445 5.0613,-31.78445 h -32.69495 l -10.68541,63.48322 z"
       style="fill:#d1d1d1;fill-opacity:1;stroke:none;stroke-width:0.264583px;stroke-linecap:butt;stroke-linejoin:miter;stroke-opacity:1" />
  </g>
  <g
     style="display:inline"
     inkscape:label="bracodir"
     id="layer8"
     inkscape:groupmode="layer">
    <path
       style="fill:#ffddbe;fill-opacity:1;stroke:none;stroke-width:0.264583px;stroke-linecap:butt;stroke-linejoin:miter;stroke-opacity:1"
       d="m 293.89497,106.42772 c -34.4768,-1.12843 -37.43879,-12.769931 -37.43879,-12.769931 l -6.29638,2.71183 c 0,0 8.17836,20.983691 39.7514,13.490711 z"
       id="path934-1"
       sodipodi:nodetypes="ccccc" />
  </g>
  <g
     inkscape:label="cabeca"
     id="layer12"
     inkscape:groupmode="layer">
    <path
       sodipodi:nodetypes="cssssscscc"
       id="path1004"
       d="m 291.5205,97.207561 c 0,0 -3.12467,-4.22542 -2.08523,-7.154736 1.03942,-2.929315 6.08964,-12.185404 2.22063,-18.193683 -4.71056,-7.315145 -19.81462,-5.203677 -18.7575,8.884746 0.18134,2.416702 -0.989,3.77789 -0.93266,4.680533 0.0747,1.197248 1.80655,0.659778 1.80655,1.17639 0,5.980755 0.96141,5.296195 4.77998,4.538097 0,0 0.67699,5.865191 -2.27168,6.032529 -2.94871,0.167339 2.27168,2.803263 2.27168,2.803263 z"
       style="fill:#ffddbe;fill-opacity:1;stroke:none;stroke-width:0.264583px;stroke-linecap:butt;stroke-linejoin:miter;stroke-opacity:1" />
  </g>
  <g
     inkscape:label="cabelo"
     id="layer13"
     inkscape:groupmode="layer">
    <path
       sodipodi:nodetypes="cccccscsscc"
       id="path1007"
       d="m 289.57701,89.06064 -2.35647,-6e-6 c 1.49823,-10.150904 -4.47787,-8.673637 -4.32328,-6.314434 l -0.21528,2.846861 -1.7149,0.06682 c -0.89461,-7.712683 -0.75775,-7.519919 -2.96176,-8.910794 -1.30835,-0.825657 -5.0176,0.456019 -5.0176,0.456019 -2.51785,-6.721564 2.53476,-10.091184 7.67032,-10.918085 1.53113,-0.246534 -0.0676,0.965977 0.47628,0.962762 6.63389,-0.03922 14.23745,3.05577 11.25854,5.313889 0,0 5.26349,4.035358 -2.81585,16.496968 z"
       style="fill:#090807;fill-opacity:1;stroke:none;stroke-width:0.264583px;stroke-linecap:butt;stroke-linejoin:miter;stroke-opacity:1" />
  </g>
  <g
     style="display:inline"
     inkscape:label="torso"
     id="layer6"
     inkscape:groupmode="layer">
    <path
       style="fill:#0071ed;fill-opacity:1;stroke:none;stroke-width:0.264583px;stroke-linecap:butt;stroke-linejoin:miter;stroke-opacity:1"
       d="m 262.20479,147.41002 c 0,0 5.88529,-13.46676 4.68258,-32.30926 l -6.75796,1.73725 -0.71124,-11.53872 c 5.03955,-2.90958 7.27709,-7.512172 13.91372,-7.960512 7.64399,-0.516392 11.49918,-0.169121 16.87972,-0.291397 10.98223,0.803474 12.46666,13.863459 8.37248,18.145119 -7.48354,12.6953 -3.68435,32.21752 -3.68435,32.21752 z"
       id="path915"
       sodipodi:nodetypes="ccccscccc" />
  </g>
  <g
     style="opacity:1"
     inkscape:label="bracoesq"
     id="layer7"
     inkscape:groupmode="layer">
    <path
       sodipodi:nodetypes="ccccc"
       id="path934"
       d="m 259.41817,105.29929 c -16.88432,8.01972 -25.87834,-5.883248 -25.87834,-5.883248 l -7.14828,1.124918 c 0,0 11.90905,21.12574 33.73784,16.29704 z"
       style="fill:#ffddbe;fill-opacity:1;stroke:none;stroke-width:0.264583px;stroke-linecap:butt;stroke-linejoin:miter;stroke-opacity:1" />
  </g>
  <g
     inkscape:label="panel"
     id="layer10"
     inkscape:groupmode="layer">
    <path
       id="rect855-4"
       style="fill:#ff3e3e;fill-opacity:1;stroke:none;stroke-width:13.7652;stroke-linecap:round;stroke-linejoin:round;stroke-miterlimit:4;stroke-dasharray:none;stroke-opacity:1;paint-order:markers fill stroke"
       d="m 201.74285,90.798336 59.43876,-3.148816 0.46751,8.825105 -59.43875,3.148816 z" />
  </g>
  <g
     inkscape:label="maoesq"
     id="layer9"
     inkscape:groupmode="layer">
    <path
       sodipodi:nodetypes="ccccccccccscc"
       id="path968"
       d="m 226.39155,100.54096 -2.41969,-3.923026 c -0.29374,-0.508781 0.50038,-0.893827 0.80585,-0.588359 3.0037,3.515273 0.076,-0.998679 -0.53994,-2.86788 -0.47945,-1.492223 0.79619,-1.559801 1.10694,-0.722894 1.62996,4.862822 2.79018,4.565988 0.46338,-1.404844 -0.2985,-1.117412 0.8664,-1.112186 1.18118,-0.566965 1.49991,4.908458 2.0051,7.88116 2.0309,1.609058 0,-0.825802 1.18508,-0.748108 1.21662,0.307106 0,0 0.3564,5.863408 2.20713,5.638638 1.91743,-0.148515 3.20723,-0.464499 2.93975,0.533756 -0.10423,0.388995 -1.1302,0.473128 -1.84384,0.860492 z"
       style="fill:#ffddbe;fill-opacity:1;stroke:none;stroke-width:0.264583px;stroke-linecap:butt;stroke-linejoin:miter;stroke-opacity:1" />
  </g>
  <g
     inkscape:label="maodir"
     id="layer11"
     inkscape:groupmode="layer">
    <path
       style="fill:#ffddbe;fill-opacity:1;stroke:none;stroke-width:0.264583px;stroke-linecap:butt;stroke-linejoin:miter;stroke-opacity:1"
       d="m 258.43099,96.645108 0.90286,-4.519942 c 0.0983,-0.579209 -0.78021,-0.663762 -0.96025,-0.271069 -1.59228,4.340968 -0.41886,-0.909774 -0.49206,-2.87648 -0.07,-1.565794 -1.28934,-1.185125 -1.28935,-0.292388 0.16461,5.126081 -1.02638,5.251655 -0.92339,-1.155702 -0.10911,-1.151437 -1.19935,-0.741062 -1.30467,-0.120369 0.30241,5.123597 0.86354,8.086249 -1.34382,2.215347 -0.28744,-0.774161 -1.37137,-0.288827 -1.03365,0.711382 0,0 1.74444,5.759982 -0.0688,6.193465 -0.56689,0.869719 -2.63231,0.05404 -2.59128,0.873637 0.0167,0.33303 0.85858,0.526792 1.71257,0.710287 z"
       id="path968-1"
       sodipodi:nodetypes="ccccccccccscc" />
  </g>
</svg>
